<?xml version="1.0" encoding="utf-8"?>
<svg viewBox="537.4858 7.616 264.7792 486.3779" width="264.779px" height="486.378px" xmlns="http://www.w3.org/2000/svg">
  <path d="M 571.873 7.616 C 636.553 7.616 701.233 7.616 767.873 7.616 C 767.873 12.566 767.873 17.516 767.873 22.616 C 760.943 22.616 754.013 22.616 746.873 22.616 C 746.873 45.386 746.873 68.156 746.873 91.616 C 750.173 91.616 753.473 91.616 756.873 91.616 C 771.815 94.571 784.257 103.675 793.123 115.803 C 800.042 126.751 802.024 138.541 802.013 151.203 C 802.018 152.803 802.018 152.803 802.022 154.435 C 802.031 158.009 802.033 161.583 802.034 165.157 C 802.039 167.72 802.044 170.283 802.049 172.845 C 802.062 179.808 802.069 186.771 802.073 193.734 C 802.076 198.086 802.08 202.438 802.085 206.789 C 802.097 218.849 802.107 230.909 802.111 242.968 C 802.111 243.74 802.111 244.511 802.111 245.306 C 802.111 246.079 802.112 246.852 802.112 247.648 C 802.112 249.215 802.113 250.781 802.113 252.348 C 802.113 253.125 802.114 253.902 802.114 254.702 C 802.118 267.284 802.135 279.866 802.159 292.448 C 802.182 305.38 802.195 318.312 802.196 331.244 C 802.197 338.499 802.202 345.754 802.221 353.009 C 802.238 359.836 802.239 366.664 802.231 373.491 C 802.23 375.992 802.234 378.493 802.244 380.994 C 802.257 384.418 802.251 387.842 802.24 391.267 C 802.253 392.737 802.253 392.737 802.265 394.237 C 802.157 409.473 796.695 424.603 786.029 435.659 C 775.995 444.766 764.806 449.239 751.873 452.616 C 752.267 453.488 752.661 454.36 753.066 455.259 C 754.533 458.516 755.983 461.781 757.427 465.049 C 758.053 466.458 758.684 467.865 759.319 469.27 C 760.235 471.298 761.133 473.333 762.029 475.37 C 762.314 475.99 762.598 476.61 762.891 477.249 C 764.742 481.516 765.253 484.986 764.873 489.616 C 763.042 492.232 761.963 492.586 758.873 493.616 C 756.513 493.715 754.15 493.751 751.788 493.756 C 750.699 493.761 750.699 493.761 749.589 493.765 C 747.15 493.774 744.711 493.775 742.272 493.777 C 740.526 493.781 738.78 493.787 737.034 493.792 C 732.286 493.805 727.538 493.811 722.79 493.816 C 719.825 493.819 716.86 493.823 713.895 493.827 C 704.621 493.841 695.347 493.851 686.073 493.855 C 675.361 493.859 664.649 493.877 653.937 493.906 C 645.661 493.927 637.385 493.937 629.109 493.939 C 624.164 493.94 619.22 493.946 614.275 493.963 C 609.624 493.98 604.974 493.982 600.323 493.973 C 598.616 493.973 596.909 493.977 595.201 493.987 C 592.871 493.999 590.542 493.994 588.212 493.983 C 586.907 493.985 585.603 493.986 584.26 493.988 C 580.343 493.558 577.678 492.42 574.873 489.616 C 574.455 484.209 575.493 480.218 577.717 475.37 C 578.005 474.714 578.294 474.058 578.591 473.382 C 579.506 471.308 580.439 469.243 581.373 467.178 C 582 465.765 582.627 464.352 583.252 462.938 C 584.779 459.491 586.321 456.052 587.873 452.616 C 586.758 452.294 585.643 451.972 584.494 451.64 C 567.587 446.723 553.967 439.332 544.873 423.616 C 539.662 413.041 537.567 403.399 537.612 391.674 C 537.608 390.606 537.605 389.538 537.601 388.437 C 537.59 384.874 537.594 381.312 537.598 377.75 C 537.594 375.188 537.589 372.627 537.583 370.065 C 537.571 363.84 537.568 357.614 537.571 351.388 C 537.572 346.324 537.571 341.26 537.566 336.196 C 537.566 335.474 537.565 334.752 537.565 334.008 C 537.563 332.541 537.562 331.073 537.561 329.606 C 537.55 315.859 537.552 302.111 537.558 288.364 C 537.563 275.809 537.552 263.254 537.533 250.698 C 537.514 237.785 537.506 224.873 537.509 211.959 C 537.511 204.718 537.509 197.477 537.495 190.236 C 537.481 183.424 537.484 176.611 537.497 169.799 C 537.499 167.305 537.497 164.811 537.488 162.317 C 537.422 140.653 538.942 122.461 554.943 106.315 C 565.975 96.151 577.998 91.616 592.873 91.616 C 592.873 68.846 592.873 46.076 592.873 22.616 C 585.943 22.616 579.013 22.616 571.873 22.616 C 571.873 17.666 571.873 12.716 571.873 7.616 Z M 607.873 22.616 C 607.873 45.056 607.873 67.496 607.873 90.616 C 616.783 90.616 625.693 90.616 634.873 90.616 C 635.422 83.57 635.422 83.57 634.873 76.616 C 633.046 74.691 631.388 73.958 628.986 72.866 C 624.842 70.414 623.301 66.046 621.873 61.616 C 620.856 55.687 621.772 49.803 624.873 44.616 C 629.334 39.535 634.144 36.93 640.97 36.355 C 642.07 36.35 643.169 36.346 644.302 36.341 C 645.557 36.332 646.812 36.322 648.105 36.312 C 649.463 36.312 650.82 36.313 652.178 36.315 C 653.585 36.311 654.992 36.307 656.399 36.302 C 659.343 36.295 662.286 36.295 665.23 36.3 C 668.984 36.306 672.739 36.289 676.493 36.266 C 679.398 36.251 682.303 36.25 685.208 36.253 C 686.591 36.253 687.975 36.248 689.358 36.237 C 705.506 36.134 705.506 36.134 711.896 41.229 C 716.368 46.851 718.453 51.911 718.244 59.178 C 717.533 63.851 715.707 67.846 712.873 71.616 C 710.76 72.866 710.76 72.866 708.56 73.866 C 706.4 74.818 706.4 74.818 704.873 76.616 C 704.145 81.468 704.503 85.673 704.873 90.616 C 713.783 90.616 722.693 90.616 731.873 90.616 C 731.873 68.176 731.873 45.736 731.873 22.616 C 690.953 22.616 650.033 22.616 607.873 22.616 Z M 649.873 77.616 C 649.873 81.906 649.873 86.196 649.873 90.616 C 663.073 90.616 676.273 90.616 689.873 90.616 C 689.873 86.326 689.873 82.036 689.873 77.616 C 676.673 77.616 663.473 77.616 649.873 77.616 Z M 562.873 119.616 C 556.432 128.088 552.873 135.939 552.873 146.616 C 630.093 146.616 707.313 146.616 786.873 146.616 C 785.537 133.258 782.25 123.649 771.705 114.795 C 763.055 108.702 753.828 105.502 743.271 105.475 C 742.622 105.472 741.972 105.469 741.302 105.466 C 739.132 105.458 736.962 105.456 734.792 105.455 C 733.233 105.45 731.674 105.445 730.115 105.44 C 725.883 105.426 721.651 105.42 717.42 105.416 C 714.772 105.413 712.125 105.409 709.478 105.404 C 701.185 105.39 692.893 105.381 684.6 105.377 C 675.046 105.372 665.493 105.355 655.939 105.326 C 648.543 105.304 641.146 105.294 633.75 105.293 C 629.338 105.292 624.926 105.286 620.514 105.268 C 616.36 105.251 612.205 105.249 608.05 105.258 C 606.532 105.259 605.015 105.255 603.497 105.245 C 588.208 105.15 573.654 107.841 562.873 119.616 Z M 552.873 161.616 C 552.873 234.216 552.873 306.816 552.873 381.616 C 630.093 381.616 707.313 381.616 786.873 381.616 C 786.873 309.016 786.873 236.416 786.873 161.616 C 709.653 161.616 632.433 161.616 552.873 161.616 Z M 552.873 396.616 C 554.086 408.749 557.55 418.687 566.775 427.006 C 578.004 435.621 589.197 437.064 602.943 437.02 C 604.56 437.026 606.177 437.032 607.794 437.041 C 612.167 437.058 616.538 437.057 620.911 437.052 C 624.571 437.049 628.231 437.055 631.891 437.061 C 640.533 437.075 649.174 437.073 657.816 437.062 C 666.706 437.05 675.596 437.064 684.486 437.091 C 692.141 437.113 699.796 437.12 707.45 437.114 C 712.013 437.111 716.575 437.113 721.137 437.13 C 725.431 437.146 729.724 437.142 734.018 437.123 C 735.585 437.119 737.152 437.122 738.719 437.133 C 753.93 437.227 764.702 434.361 775.807 423.772 C 783.584 415.61 785.756 407.782 786.873 396.616 C 709.653 396.616 632.433 396.616 552.873 396.616 Z M 604.873 451.616 C 597.416 464.704 597.416 464.704 593.873 478.616 C 644.033 478.616 694.193 478.616 745.873 478.616 C 742.8 469.396 738.82 460.496 734.873 451.616 C 691.973 451.616 649.073 451.616 604.873 451.616 Z" style="fill: rgb(255, 255, 255); --darkreader-inline-fill: #e8e6e3;" data-darkreader-inline-fill="" transform="matrix(1, 0, 0, 1, 1.1368683772161603e-13, 5.684341886080802e-14)"/>
  <rect x="545.562" y="159.272" width="246.779" height="228.831" style="fill-rule: nonzero; paint-order: stroke; stroke: rgb(255, 255, 255); fill: rgba(255, 255, 255, 0.9); --darkreader-inline-stroke: #e8e6e3; --darkreader-inline-fill: rgba(232, 230, 227, 0.9);" data-darkreader-inline-stroke="" data-darkreader-inline-fill="" transform="matrix(1, 0, 0, 1, 1.1368683772161603e-13, 5.684341886080802e-14)"/>
  <rect x="593.123" y="448.228" width="154.349" height="34.998" style="stroke: rgba(255, 255, 255, 0); fill: rgba(255, 255, 255, 0.74); --darkreader-inline-stroke: rgba(232, 230, 227, 0); --darkreader-inline-fill: rgba(232, 230, 227, 0.74);" data-darkreader-inline-stroke="" data-darkreader-inline-fill="" transform="matrix(1, 0, 0, 1, 1.1368683772161603e-13, 5.684341886080802e-14)"/>
  <path style="stroke: rgba(255, 255, 255, 0); fill: rgba(255, 255, 255, 0.5); --darkreader-inline-stroke: rgba(232, 230, 227, 0); --darkreader-inline-fill: rgba(232, 230, 227, 0.5);" d="M 547.357 391.693 L 559.92 431.178 L 602.097 444.638 L 751.959 441.946 L 783.367 426.691 L 791.444 392.59 L 547.357 391.693 Z" data-darkreader-inline-stroke="" data-darkreader-inline-fill="" transform="matrix(1, 0, 0, 1, 1.1368683772161603e-13, 5.684341886080802e-14)"/>
  <path style="stroke: rgba(255, 255, 255, 0); fill: rgba(255, 255, 255, 0.5); --darkreader-inline-stroke: rgba(232, 230, 227, 0); --darkreader-inline-fill: rgba(232, 230, 227, 0.5);" d="M 547.357 150.299 L 791.444 148.504 L 778.88 115.301 L 747.472 100.943 L 591.328 101.84 L 559.023 114.404 L 547.357 150.299 Z" data-darkreader-inline-stroke="" data-darkreader-inline-fill="" transform="matrix(1, 0, 0, 1, 1.1368683772161603e-13, 5.684341886080802e-14)"/>
  <rect x="603.892" y="18.384" width="136.401" height="78.969" style="stroke: rgba(255, 255, 255, 0); fill: rgba(255, 255, 255, 0.5); --darkreader-inline-stroke: rgba(232, 230, 227, 0); --darkreader-inline-fill: rgba(232, 230, 227, 0.5);" data-darkreader-inline-stroke="" data-darkreader-inline-fill="" transform="matrix(1, 0, 0, 1, 1.1368683772161603e-13, 5.684341886080802e-14)"/>
</svg>